Force Field/Parameter File: intra.ff
        file   in.ref  intra
  [ OPT ] SIM CONV=1E-6  MAXIT=1000
  [ KEY ]  INTRA   NORM=RMS
  [ MOLECULETYPE ]  H2OQM
    [ ATOMS ]     6
        1   OW     OW
        2   HW     HW
        3   HW     HW
        4*  EW     EW 3:  0.6 1   +   0.2 2   +   0.2 3
        5   NETF    NETF
        6   TORQ    TORQ
    [ EXCLUSIONS ]    6
        1   2   0   0
        1   3   0   0
        1   4   0   0
        2   3   0   0
        2   4   0   0
        3   4   0   0
    [ BONDS ] 1
      QUA 2   FIX 0.951  1255.19    -4503.57   7020.31
        1   2
        1   3
    [ ANGLES ] 1
      HAR 1   FIX 106.678  82.658
        2   1   3
  [ MOLECULETYPE ]  H2OMM
    [ ATOMS ]     4
        1   OMM     OMM
        2   HMM     HMM
        3   HMM     HMM
        4*  EMM     EMM 3: 0.6 1   +   0.2 2  +   0.2 3
    [ DIHEDRALS ]     0
    [ EXCLUSIONS ]    6
        1   2   0   0
        1   3   0   0
        1   4   0   0
        2   3   0   0
        2   4   0   0
        3   4   0   0
  [ COU ]   0
  [ EXP ] 1
        OW   OW   FIX   210710   4.055
  [ POW ] 1
        OW OW FIX -610.578 -6
  [ STR ]    1
        HW   EW   FIX   81.489   4   2.483

Atom Types:
  idx  COU                 VDW
  1     OW                  OW
  2     HW                  HW
  3     EW                  EW
  4     NETF                NETF
  5     TORQ                TORQ
  6     OMM                 OMM
  7     HMM                 HMM
  8     EMM                 EMM

Job Type: Linear Parameter Optimization Only

 

 Condition number for SVD set to   2.220446049250313E-012
    No. of Linear Parameters:                0
    No. of Non-Linear Parameters:            0 

Reference Geometry/Force File: in.ref
  Total Frames Read            2400
  Total Atoms         2558400   Max.  Atom/Frame        1234
  Total Ref. Mol.        6558   Total Ref. Atom        39348 

  item         |Atomic Force|       |Net Force|     |Torque|
  Number                19674              6558              6558
    RMS               30.045617         11.342992          9.347668
    Max.             119.552378         36.845278         26.058296
    WRMS              34.770562         12.839198         10.518418

  Finished Reading            2400  frames
Non-iterative Linear Optimization

Fitting Results:
 Effective Rank of SVD Matrix,           0 for            0 linear parameters.
 


  Fitting, Weight, and Error:
  RefIdx                Frm.Grp.Atm         Weight        Ref           Fit           Fit-Ref           Fix
  218                1_10.155H2OQM.2-HW.x      0.000000     12.629297      7.984588      4.644709      7.984588
                                       .y                  -12.391711      8.854316    -21.246027      8.854316
                                       .z                   10.847960      3.259153      7.588807      3.259153
  436                1_19.310H2OQM.4-EW.x      0.000000      0.000000      0.000000      0.000000      0.000000
                                       .y                    0.000000      0.000000      0.000000      0.000000
                                       .z                    0.000000      0.000000      0.000000      0.000000
  872                1_38.632H2OQM.2-HW.x      0.000000     -7.778167    -12.575128      4.796961    -12.575128
                                       .y                   -4.000943     21.874603    -25.875546     21.874603
                                       .z                   -2.397305     -1.579358     -0.817947     -1.579358
  1090               1_47.787H2OQM.4-EW.x      0.000000      0.000000      0.000000      0.000000      0.000000
                                       .y                    0.000000      0.000000      0.000000      0.000000
                                       .z                    0.000000      0.000000      0.000000      0.000000
  1526              1_67.1123H2OQM.2-HW.x      0.000000     15.347309    -12.364932     27.712241    -12.364932
                                       .y                  -37.517159     -8.181649    -29.335510     -8.181649
                                       .z                    3.148710     12.650297     -9.501587     12.650297
  1744              1_76.1280H2OQM.4-EW.x      0.000000      0.000000      0.000000      0.000000      0.000000
                                       .y                    0.000000      0.000000      0.000000      0.000000
                                       .z                    0.000000      0.000000      0.000000      0.000000
  2180              1_97.1635H2OQM.2-HW.x      0.000000      9.633213    -19.721605     29.354818    -19.721605
                                       .y                    7.531061     19.819987    -12.288926     19.819987
                                       .z                    0.699888    -12.565783     13.265670    -12.565783
  2398             1_108.1820H2OQM.4-EW.x      0.000000      0.000000      0.000000      0.000000      0.000000
                                       .y                    0.000000      0.000000      0.000000      0.000000
                                       .z                    0.000000      0.000000      0.000000      0.000000
  2834             1_129.2178H2OQM.2-HW.x      0.000000     -6.346716     15.795695    -22.142411     15.795695
                                       .y                   13.618608     22.939710     -9.321102     22.939710
                                       .z                    8.842966     -1.493836     10.336802     -1.493836
  3052             1_140.2364H2OQM.4-EW.x      0.000000      0.000000      0.000000      0.000000      0.000000
                                       .y                    0.000000      0.000000      0.000000      0.000000
                                       .z                    0.000000      0.000000      0.000000      0.000000
  3488             1_159.2690H2OQM.2-HW.x      0.000000     -3.628644     21.682141    -25.310785     21.682141
                                       .y                   -2.704449    -13.427093     10.722644    -13.427093
                                       .z                  -12.129351      5.857854    -17.987205      5.857854
  3706             1_170.2874H2OQM.4-EW.x      0.000000      0.000000      0.000000      0.000000      0.000000
                                       .y                    0.000000      0.000000      0.000000      0.000000
                                       .z                    0.000000      0.000000      0.000000      0.000000
  4142             1_189.3201H2OQM.2-HW.x      0.000000      1.319755      2.964001     -1.644246      2.964001
                                       .y                    0.844658      6.922960     -6.078302      6.922960
                                       .z                    7.648665    -21.027921     28.676586    -21.027921
  4360             1_199.3368H2OQM.4-EW.x      0.000000      0.000000      0.000000      0.000000      0.000000
                                       .y                    0.000000      0.000000      0.000000      0.000000
                                       .z                    0.000000      0.000000      0.000000      0.000000
  4796             1_219.3711H2OQM.2-HW.x      0.000000     -5.571752      1.292405     -6.864157      1.292405
                                       .y                   -7.908741     -4.392923     -3.515818     -4.392923
                                       .z                   34.376097      9.630399     24.745699      9.630399
  5014             1_229.3879H2OQM.4-EW.x      0.000000      0.000000      0.000000      0.000000      0.000000
                                       .y                    0.000000      0.000000      0.000000      0.000000
                                       .z                    0.000000      0.000000      0.000000      0.000000
  5450             1_249.4221H2OQM.2-HW.x      0.000000      8.274979      6.664182      1.610797      6.664182
                                       .y                   -3.255576     28.735515    -31.991091     28.735515
                                       .z                  -10.631288     12.250522    -22.881810     12.250522
  5668             1_259.4389H2OQM.4-EW.x      0.000000      0.000000      0.000000      0.000000      0.000000
                                       .y                    0.000000      0.000000      0.000000      0.000000
                                       .z                    0.000000      0.000000      0.000000      0.000000
  6104             1_281.4761H2OQM.2-HW.x      0.000000    -10.362460    -29.176884     18.814425    -29.176884
                                       .y                    7.037522     25.926767    -18.889245     25.926767
                                       .z                   -6.865152    -13.616150      6.750998    -13.616150
  6322             1_291.4931H2OQM.4-EW.x      0.000000      0.000000      0.000000      0.000000      0.000000
                                       .y                    0.000000      0.000000      0.000000      0.000000
                                       .z                    0.000000      0.000000      0.000000      0.000000
  6758             1_310.5256H2OQM.2-HW.x      0.000000     21.722364     59.526182    -37.803818     59.526182
                                       .y                  -19.629689    -36.570486     16.940796    -36.570486
                                       .z                  -17.739064    -31.617631     13.878567    -31.617631
  6976             1_320.5426H2OQM.4-EW.x      0.000000      0.000000      0.000000      0.000000      0.000000
                                       .y                    0.000000      0.000000      0.000000      0.000000
                                       .z                    0.000000      0.000000      0.000000      0.000000
  7412             1_340.5765H2OQM.2-HW.x      0.000000     24.257689    -11.858544     36.116232    -11.858544
                                       .y                   -4.377478      5.643224    -10.020702      5.643224
                                       .z                   13.235910      0.094077     13.141833      0.094077
  7630             1_350.5934H2OQM.4-EW.x      0.000000      0.000000      0.000000      0.000000      0.000000
                                       .y                    0.000000      0.000000      0.000000      0.000000
                                       .z                    0.000000      0.000000      0.000000      0.000000
  8066             1_370.6274H2OQM.2-HW.x      0.000000     -6.767640     12.950297    -19.717937     12.950297
                                       .y                   -9.486302      8.495414    -17.981716      8.495414
                                       .z                   -0.149070      8.111330     -8.260400      8.111330
  8284             1_380.6444H2OQM.4-EW.x      0.000000      0.000000      0.000000      0.000000      0.000000
                                       .y                    0.000000      0.000000      0.000000      0.000000
                                       .z                    0.000000      0.000000      0.000000      0.000000
  8720             1_399.6771H2OQM.2-HW.x      0.000000     25.500504      1.263297     24.237208      1.263297
                                       .y                  -13.784948     -1.358535    -12.426412     -1.358535
                                       .z                   11.400056      3.915764      7.484291      3.915764
  8938             1_409.6939H2OQM.4-EW.x      0.000000      0.000000      0.000000      0.000000      0.000000
                                       .y                    0.000000      0.000000      0.000000      0.000000
                                       .z                    0.000000      0.000000      0.000000      0.000000
  9374             1_428.7264H2OQM.2-HW.x      0.000000     10.429031     -0.081719     10.510751     -0.081719
                                       .y                  -14.457084    -46.064122     31.607038    -46.064122
                                       .z                  -17.696563    -25.846263      8.149700    -25.846263
  9592             1_438.7430H2OQM.4-EW.x      0.000000      0.000000      0.000000      0.000000      0.000000
                                       .y                    0.000000      0.000000      0.000000      0.000000
                                       .z                    0.000000      0.000000      0.000000      0.000000
  10028            1_461.7821H2OQM.2-HW.x      0.000000      4.983578      1.099552      3.884027      1.099552
                                       .y                    2.374755     41.727749    -39.352994     41.727749
                                       .z                    1.596923    -19.926439     21.523362    -19.926439
  10246            1_470.7975H2OQM.4-EW.x      0.000000      0.000000      0.000000      0.000000      0.000000
                                       .y                    0.000000      0.000000      0.000000      0.000000
                                       .z                    0.000000      0.000000      0.000000      0.000000
  10682            1_491.8332H2OQM.2-HW.x      0.000000     -4.749138     -6.446666      1.697528     -6.446666
                                       .y                  -10.048232     -7.745909     -2.302323     -7.745909
                                       .z                    7.085350    -24.098539     31.183889    -24.098539
  10900            1_500.8485H2OQM.4-EW.x      0.000000      0.000000      0.000000      0.000000      0.000000
                                       .y                    0.000000      0.000000      0.000000      0.000000
                                       .z                    0.000000      0.000000      0.000000      0.000000
  11336            1_520.8827H2OQM.2-HW.x      0.000000     -5.535220     -0.301947     -5.233273     -0.301947
                                       .y                  -17.786385    -40.019319     22.232934    -40.019319
                                       .z                   20.634781     26.663545     -6.028763     26.663545
  11554            1_529.8979H2OQM.4-EW.x      0.000000      0.000000      0.000000      0.000000      0.000000
                                       .y                    0.000000      0.000000      0.000000      0.000000
                                       .z                    0.000000      0.000000      0.000000      0.000000
  11990            1_549.9318H2OQM.2-HW.x      0.000000    -20.685835    -24.297337      3.611502    -24.297337
                                       .y                   -7.547886     -6.786478     -0.761407     -6.786478
                                       .z                   18.928373    -13.373167     32.301540    -13.373167
  12208            1_558.9471H2OQM.4-EW.x      0.000000      0.000000      0.000000      0.000000      0.000000
                                       .y                    0.000000      0.000000      0.000000      0.000000
                                       .z                    0.000000      0.000000      0.000000      0.000000
  12644            1_579.9830H2OQM.2-HW.x      0.000000     18.339124     43.236350    -24.897226     43.236350
                                       .y                  -19.199129    -49.486752     30.287623    -49.486752
                                       .z                   15.288577     22.666377     -7.377800     22.666377
  12862           1_589.10001H2OQM.4-EW.x      0.000000      0.000000      0.000000      0.000000      0.000000
                                       .y                    0.000000      0.000000      0.000000      0.000000
                                       .z                    0.000000      0.000000      0.000000      0.000000
  13298           1_610.10355H2OQM.2-HW.x      0.000000      2.376107     34.018266    -31.642159     34.018266
                                       .y                   -4.245424    -17.823463     13.578039    -17.823463
                                       .z                    0.980406    -14.077058     15.057464    -14.077058
  13516           1_619.10510H2OQM.4-EW.x      0.000000      0.000000      0.000000      0.000000      0.000000
                                       .y                    0.000000      0.000000      0.000000      0.000000
                                       .z                    0.000000      0.000000      0.000000      0.000000
  13952           1_638.10833H2OQM.2-HW.x      0.000000     -8.377597     21.834124    -30.211722     21.834124
                                       .y                    1.088513    -19.273970     20.362483    -19.273970
                                       .z                    7.290615     -9.630058     16.920672     -9.630058
  14170           1_648.11002H2OQM.4-EW.x      0.000000      0.000000      0.000000      0.000000      0.000000
                                       .y                    0.000000      0.000000      0.000000      0.000000
                                       .z                    0.000000      0.000000      0.000000      0.000000
  14606           1_667.11325H2OQM.2-HW.x      0.000000     -8.597427     -5.704851     -2.892576     -5.704851
                                       .y                   -3.854534     25.823368    -29.677902     25.823368
                                       .z                    4.536269     -7.933473     12.469742     -7.933473
  14824           1_677.11496H2OQM.4-EW.x      0.000000      0.000000      0.000000      0.000000      0.000000
                                       .y                    0.000000      0.000000      0.000000      0.000000
                                       .z                    0.000000      0.000000      0.000000      0.000000
  15260           1_696.11818H2OQM.2-HW.x      0.000000     15.473582     51.038825    -35.565243     51.038825
                                       .y                   23.647777     42.335103    -18.687325     42.335103
                                       .z                  -16.849333    -27.699937     10.850604    -27.699937
  15478           1_706.11990H2OQM.4-EW.x      0.000000      0.000000      0.000000      0.000000      0.000000
                                       .y                    0.000000      0.000000      0.000000      0.000000
                                       .z                    0.000000      0.000000      0.000000      0.000000
  15914           1_727.12343H2OQM.2-HW.x      0.000000      2.325890     -1.060968      3.386858     -1.060968
                                       .y                    7.549803      2.686581      4.863222      2.686581
                                       .z                    0.370911    -35.903318     36.274230    -35.903318
  16132           1_737.12514H2OQM.4-EW.x      0.000000      0.000000      0.000000      0.000000      0.000000
                                       .y                    0.000000      0.000000      0.000000      0.000000
                                       .z                    0.000000      0.000000      0.000000      0.000000
  16568           1_756.12837H2OQM.2-HW.x      0.000000     -9.041499     -4.055050     -4.986449     -4.055050
                                       .y                  -12.476421    -10.193246     -2.283174    -10.193246
                                       .z                  -17.805592    -48.815649     31.010057    -48.815649
  16786           1_765.12992H2OQM.4-EW.x      0.000000      0.000000      0.000000      0.000000      0.000000
                                       .y                    0.000000      0.000000      0.000000      0.000000
                                       .z                    0.000000      0.000000      0.000000      0.000000
  17222           1_786.13346H2OQM.2-HW.x      0.000000    -12.203527    -39.138600     26.935073    -39.138600
                                       .y                    4.531454    -15.026397     19.557852    -15.026397
                                       .z                   -6.098007     -9.715562      3.617556     -9.715562
  17440           1_796.13516H2OQM.4-EW.x      0.000000      0.000000      0.000000      0.000000      0.000000
                                       .y                    0.000000      0.000000      0.000000      0.000000
                                       .z                    0.000000      0.000000      0.000000      0.000000
  17876           1_816.13858H2OQM.2-HW.x      0.000000    -10.548534     -6.563263     -3.985272     -6.563263
                                       .y                   -1.071110     -5.033284      3.962174     -5.033284
                                       .z                  -12.271052    -45.558886     33.287834    -45.558886
  18094           1_827.14043H2OQM.4-EW.x      0.000000      0.000000      0.000000      0.000000      0.000000
                                       .y                    0.000000      0.000000      0.000000      0.000000
                                       .z                    0.000000      0.000000      0.000000      0.000000
  18530           1_848.14401H2OQM.2-HW.x      0.000000    -12.629202    -34.807831     22.178629    -34.807831
                                       .y                    7.115677     16.340443     -9.224766     16.340443
                                       .z                   -5.236289     11.471855    -16.708144     11.471855
  18748           1_857.14554H2OQM.4-EW.x      0.000000      0.000000      0.000000      0.000000      0.000000
                                       .y                    0.000000      0.000000      0.000000      0.000000
                                       .z                    0.000000      0.000000      0.000000      0.000000
  19184           1_876.14876H2OQM.2-HW.x      0.000000     -2.067665     -5.487959      3.420294     -5.487959
                                       .y                    5.324846     11.620456     -6.295610     11.620456
                                       .z                   -4.385756     29.304401    -33.690157     29.304401
  19402           1_886.15047H2OQM.4-EW.x      0.000000      0.000000      0.000000      0.000000      0.000000
                                       .y                    0.000000      0.000000      0.000000      0.000000
                                       .z                    0.000000      0.000000      0.000000      0.000000
  19838           1_906.15387H2OQM.2-HW.x      0.000000      3.341469      7.026977     -3.685508      7.026977
                                       .y                   39.338633     65.390589    -26.051956     65.390589
                                       .z                  -19.052066    -37.213997     18.161931    -37.213997
  20056           1_917.15574H2OQM.4-EW.x      0.000000      0.000000      0.000000      0.000000      0.000000
                                       .y                    0.000000      0.000000      0.000000      0.000000
                                       .z                    0.000000      0.000000      0.000000      0.000000
  20492           1_936.15896H2OQM.2-HW.x      0.000000     35.814550      2.705317     33.109233      2.705317
                                       .y                  -10.205733     12.968335    -23.174068     12.968335
                                       .z                   -8.094268      3.229261    -11.323529      3.229261
  20710           1_945.16049H2OQM.4-EW.x      0.000000      0.000000      0.000000      0.000000      0.000000
                                       .y                    0.000000      0.000000      0.000000      0.000000
                                       .z                    0.000000      0.000000      0.000000      0.000000
  21146           1_964.16373H2OQM.2-HW.x      0.000000    -36.284408    -65.632117     29.347708    -65.632117
                                       .y                   26.590973     43.496084    -16.905111     43.496084
                                       .z                  -14.039381    -29.132522     15.093141    -29.132522
  21364           1_974.16542H2OQM.4-EW.x      0.000000      0.000000      0.000000      0.000000      0.000000
                                       .y                    0.000000      0.000000      0.000000      0.000000
                                       .z                    0.000000      0.000000      0.000000      0.000000
  21800           1_993.16867H2OQM.2-HW.x      0.000000     17.560747    -12.415317     29.976064    -12.415317
                                       .y                  -12.812088      0.137300    -12.949389      0.137300
                                       .z                    2.807910     -4.126190      6.934100     -4.126190
  22018          1_1003.17037H2OQM.4-EW.x      0.000000      0.000000      0.000000      0.000000      0.000000
                                       .y                    0.000000      0.000000      0.000000      0.000000
                                       .z                    0.000000      0.000000      0.000000      0.000000
  22454          1_1022.17362H2OQM.2-HW.x      0.000000      6.043080     10.503977     -4.460897     10.503977
                                       .y                   -1.273636     -4.429085      3.155449     -4.429085
                                       .z                  -73.515882    -44.683892    -28.831991    -44.683892
  22672          1_1032.17532H2OQM.4-EW.x      0.000000      0.000000      0.000000      0.000000      0.000000
                                       .y                    0.000000      0.000000      0.000000      0.000000
                                       .z                    0.000000      0.000000      0.000000      0.000000
  23108          1_1053.17888H2OQM.2-HW.x      0.000000      5.296782     25.094409    -19.797627     25.094409
                                       .y                    8.722872     27.997733    -19.274861     27.997733
                                       .z                    5.556097     23.934696    -18.378599     23.934696
  23326          1_1063.18056H2OQM.4-EW.x      0.000000      0.000000      0.000000      0.000000      0.000000
                                       .y                    0.000000      0.000000      0.000000      0.000000
                                       .z                    0.000000      0.000000      0.000000      0.000000
  23762          1_1082.18380H2OQM.2-HW.x      0.000000     -5.708655    -13.791921      8.083266    -13.791921
                                       .y                   -8.255491     -7.721874     -0.533618     -7.721874
                                       .z                  -28.134354    -71.327769     43.193415    -71.327769
  23980          1_1092.18550H2OQM.4-EW.x      0.000000      0.000000      0.000000      0.000000      0.000000
                                       .y                    0.000000      0.000000      0.000000      0.000000
                                       .z                    0.000000      0.000000      0.000000      0.000000
  24416          1_1113.18908H2OQM.2-HW.x      0.000000    -15.887355    -10.944503     -4.942851    -10.944503
                                       .y                   17.924467     55.540410    -37.615944     55.540410
                                       .z                   -8.232028     -0.345801     -7.886228     -0.345801
  24634          1_1123.19075H2OQM.4-EW.x      0.000000      0.000000      0.000000      0.000000      0.000000
                                       .y                    0.000000      0.000000      0.000000      0.000000
                                       .z                    0.000000      0.000000      0.000000      0.000000
  25070          1_1144.19432H2OQM.2-HW.x      0.000000     -9.745326     -7.334409     -2.410917     -7.334409
                                       .y                   14.411397    -16.214388     30.625785    -16.214388
                                       .z                    6.950062     -1.352462      8.302524     -1.352462
  25288          1_1154.19605H2OQM.4-EW.x      0.000000      0.000000      0.000000      0.000000      0.000000
                                       .y                    0.000000      0.000000      0.000000      0.000000
                                       .z                    0.000000      0.000000      0.000000      0.000000
  25724          1_1177.19993H2OQM.2-HW.x      0.000000    -36.855450    -19.256083    -17.599368    -19.256083
                                       .y                  -10.044179      9.496296    -19.540476      9.496296
                                       .z                    7.085016     -1.812864      8.897880     -1.812864
  25942          1_1188.20180H2OQM.4-EW.x      0.000000      0.000000      0.000000      0.000000      0.000000
                                       .y                    0.000000      0.000000      0.000000      0.000000
                                       .z                    0.000000      0.000000      0.000000      0.000000
  26378          1_1215.20639H2OQM.2-HW.x      0.000000     -8.423323     -9.356910      0.933587     -9.356910
                                       .y                   -1.465633      1.417261     -2.882893      1.417261
                                       .z                   38.458192     12.315022     26.143171     12.315022
  26596          1_1240.21064H2OQM.4-EW.x      0.000000      0.000000      0.000000      0.000000      0.000000
                                       .y                    0.000000      0.000000      0.000000      0.000000
                                       .z                    0.000000      0.000000      0.000000      0.000000
  27032          1_1278.21710H2OQM.2-HW.x      0.000000      9.376325      1.132915      8.243409      1.132915
                                       .y                   -4.368051      6.764199    -11.132250      6.764199
                                       .z                    2.174003     11.420441     -9.246438     11.420441
  27250          1_1297.22034H2OQM.4-EW.x      0.000000      0.000000      0.000000      0.000000      0.000000
                                       .y                    0.000000      0.000000      0.000000      0.000000
                                       .z                    0.000000      0.000000      0.000000      0.000000
  27686          1_1336.22700H2OQM.2-HW.x      0.000000     -5.776815      6.910282    -12.687098      6.910282
                                       .y                    2.492999      8.933447     -6.440448      8.933447
                                       .z                   -4.909430     18.863597    -23.773027     18.863597
  27904          1_1356.23036H2OQM.4-EW.x      0.000000      0.000000      0.000000      0.000000      0.000000
                                       .y                    0.000000      0.000000      0.000000      0.000000
                                       .z                    0.000000      0.000000      0.000000      0.000000
  28340          1_1397.23733H2OQM.2-HW.x      0.000000      2.357160     18.492389    -16.135229     18.492389
                                       .y                   -2.971471     10.418575    -13.390046     10.418575
                                       .z                   15.564247     -8.184576     23.748823     -8.184576
  28558          1_1418.24090H2OQM.4-EW.x      0.000000      0.000000      0.000000      0.000000      0.000000
                                       .y                    0.000000      0.000000      0.000000      0.000000
                                       .z                    0.000000      0.000000      0.000000      0.000000
  28994          1_1456.24737H2OQM.2-HW.x      0.000000     -2.377709     18.442003    -20.819712     18.442003
                                       .y                    2.523229     -5.559950      8.083179     -5.559950
                                       .z                    3.222473    -12.222197     15.444670    -12.222197
  29212          1_1473.25028H2OQM.4-EW.x      0.000000      0.000000      0.000000      0.000000      0.000000
                                       .y                    0.000000      0.000000      0.000000      0.000000
                                       .z                    0.000000      0.000000      0.000000      0.000000
  29648          1_1518.25792H2OQM.2-HW.x      0.000000     -7.454475     -5.514138     -1.940338     -5.514138
                                       .y                   -3.188353      0.423502     -3.611854      0.423502
                                       .z                  -30.570220    -13.358312    -17.211908    -13.358312
  29866          1_1537.26113H2OQM.4-EW.x      0.000000      0.000000      0.000000      0.000000      0.000000
                                       .y                    0.000000      0.000000      0.000000      0.000000
                                       .z                    0.000000      0.000000      0.000000      0.000000
  30302          1_1573.26728H2OQM.2-HW.x      0.000000    -12.714432    -14.926853      2.212421    -14.926853
                                       .y                    0.117015    -18.066957     18.183972    -18.066957
                                       .z                   12.104842     25.927359    -13.822518     25.927359
  30520          1_1591.27031H2OQM.4-EW.x      0.000000      0.000000      0.000000      0.000000      0.000000
                                       .y                    0.000000      0.000000      0.000000      0.000000
                                       .z                    0.000000      0.000000      0.000000      0.000000
  30956          1_1632.27731H2OQM.2-HW.x      0.000000     -8.634468     -3.071554     -5.562914     -3.071554
                                       .y                   -5.636079     -4.367041     -1.269038     -4.367041
                                       .z                   19.393487      0.972184     18.421303      0.972184
  31174          1_1650.28035H2OQM.4-EW.x      0.000000      0.000000      0.000000      0.000000      0.000000
                                       .y                    0.000000      0.000000      0.000000      0.000000
                                       .z                    0.000000      0.000000      0.000000      0.000000
  31610          1_1692.28748H2OQM.2-HW.x      0.000000     -5.164475     -4.384884     -0.779590     -4.384884
                                       .y                   -5.267530      3.268283     -8.535813      3.268283
                                       .z                  -19.585725     -3.417721    -16.168005     -3.417721
  31828          1_1713.29106H2OQM.4-EW.x      0.000000      0.000000      0.000000      0.000000      0.000000
                                       .y                    0.000000      0.000000      0.000000      0.000000
                                       .z                    0.000000      0.000000      0.000000      0.000000
  32264          1_1750.29735H2OQM.2-HW.x      0.000000     -7.543891      1.051615     -8.595506      1.051615
                                       .y                   -2.889822     -8.962289      6.072468     -8.962289
                                       .z                    0.556532      2.162360     -1.605828      2.162360
  32482          1_1768.30045H2OQM.4-EW.x      0.000000      0.000000      0.000000      0.000000      0.000000
                                       .y                    0.000000      0.000000      0.000000      0.000000
                                       .z                    0.000000      0.000000      0.000000      0.000000
  32918          1_1814.30823H2OQM.2-HW.x      0.000000     -8.540664      4.060272    -12.600935      4.060272
                                       .y                  -18.387321    -34.849619     16.462297    -34.849619
                                       .z                   -3.312298      0.129365     -3.441663      0.129365
  33136          1_1831.31111H2OQM.4-EW.x      0.000000      0.000000      0.000000      0.000000      0.000000
                                       .y                    0.000000      0.000000      0.000000      0.000000
                                       .z                    0.000000      0.000000      0.000000      0.000000
  33572          1_1868.31740H2OQM.2-HW.x      0.000000    -12.826221     13.411974    -26.238195     13.411974
                                       .y                  -10.634432     -4.365264     -6.269168     -4.365264
                                       .z                   10.075450     -3.220162     13.295612     -3.220162
  33790          1_1887.32066H2OQM.4-EW.x      0.000000      0.000000      0.000000      0.000000      0.000000
                                       .y                    0.000000      0.000000      0.000000      0.000000
                                       .z                    0.000000      0.000000      0.000000      0.000000
  34226          1_1927.32743H2OQM.2-HW.x      0.000000     -4.562193      6.910282    -11.472475      6.910282
                                       .y                    2.730389      8.933447     -6.203059      8.933447
                                       .z                   -5.029329     18.863597    -23.892926     18.863597
  34444          1_1947.33085H2OQM.4-EW.x      0.000000      0.000000      0.000000      0.000000      0.000000
                                       .y                    0.000000      0.000000      0.000000      0.000000
                                       .z                    0.000000      0.000000      0.000000      0.000000
  34880          1_1987.33764H2OQM.2-HW.x      0.000000    -13.533924    -10.217155     -3.316769    -10.217155
                                       .y                  -31.792510    -13.549090    -18.243419    -13.549090
                                       .z                   23.347910      0.718965     22.628946      0.718965
  35098          1_2008.34120H2OQM.4-EW.x      0.000000      0.000000      0.000000      0.000000      0.000000
                                       .y                    0.000000      0.000000      0.000000      0.000000
                                       .z                    0.000000      0.000000      0.000000      0.000000
  35534          1_2047.34783H2OQM.2-HW.x      0.000000     15.269604     11.506521      3.763084     11.506521
                                       .y                  -22.266571     -8.657439    -13.609132     -8.657439
                                       .z                   34.980010     16.008236     18.971774     16.008236
  35752          1_2065.35090H2OQM.4-EW.x      0.000000      0.000000      0.000000      0.000000      0.000000
                                       .y                    0.000000      0.000000      0.000000      0.000000
                                       .z                    0.000000      0.000000      0.000000      0.000000
  36188          1_2106.35790H2OQM.2-HW.x      0.000000     -5.520314     -9.909791      4.389477     -9.909791
                                       .y                    2.659485    -15.487477     18.146961    -15.487477
                                       .z                    6.996243     -1.708490      8.704733     -1.708490
  36406          1_2126.36127H2OQM.4-EW.x      0.000000      0.000000      0.000000      0.000000      0.000000
                                       .y                    0.000000      0.000000      0.000000      0.000000
                                       .z                    0.000000      0.000000      0.000000      0.000000
  36842          1_2165.36791H2OQM.2-HW.x      0.000000     -2.085174      1.614642     -3.699815      1.614642
                                       .y                   -1.783643    -10.707046      8.923403    -10.707046
                                       .z                   -7.651355     -4.885381     -2.765974     -4.885381
  37060          1_2184.37112H2OQM.4-EW.x      0.000000      0.000000      0.000000      0.000000      0.000000
                                       .y                    0.000000      0.000000      0.000000      0.000000
                                       .z                    0.000000      0.000000      0.000000      0.000000
  37496          1_2224.37792H2OQM.2-HW.x      0.000000     -5.555956      5.348900    -10.904856      5.348900
                                       .y                    0.234036     -5.170498      5.404534     -5.170498
                                       .z                   -3.681955      3.234869     -6.916824      3.234869
  37714          1_2248.38200H2OQM.4-EW.x      0.000000      0.000000      0.000000      0.000000      0.000000
                                       .y                    0.000000      0.000000      0.000000      0.000000
                                       .z                    0.000000      0.000000      0.000000      0.000000
  38150          1_2285.38833H2OQM.2-HW.x      0.000000     -8.523520     -2.267319     -6.256201     -2.267319
                                       .y                    4.613108     -2.767381      7.380489     -2.767381
                                       .z                  -12.432983      3.088203    -15.521186      3.088203
  38368          1_2305.39170H2OQM.4-EW.x      0.000000      0.000000      0.000000      0.000000      0.000000
                                       .y                    0.000000      0.000000      0.000000      0.000000
                                       .z                    0.000000      0.000000      0.000000      0.000000
  38804          1_2346.39867H2OQM.2-HW.x      0.000000     -9.193979      4.653011    -13.846990      4.653011
                                       .y                   -0.592339      3.974359     -4.566698      3.974359
                                       .z                  -16.271043    -41.535874     25.264831    -41.535874
  39022          1_2367.40226H2OQM.4-EW.x      0.000000      0.000000      0.000000      0.000000      0.000000
                                       .y                    0.000000      0.000000      0.000000      0.000000
                                       .z                    0.000000      0.000000      0.000000      0.000000

  Objective Function:
    Type       No.          chi^2

  RMS Error: (Per particle)
    Mol.Type            No.       RMS|Ref|        RMS|Fit|         RMSD|Fit-Ref|
    H2OQM.Fatm       19674       30.045617       45.101206       32.878155
    ALL.Fatm         19674       30.045617       45.101206       32.878155
    Warning: atomic force is not being fitted.
 
Quality of Fit Analysis
Slope:     1.027920 Intercept     0.033229 Pearson     0.684782

  Rank of SVD Matrix:    0
  Singular Value Spectrum:

 

  Force Field Potential:
    Intra-Potential:
        [ QUA ]   2  FIxT      0.95100000         1255.1900        -4503.5700         7020.3100    
                    1           2
                    1           3
        [ HAR ]   1  FIxT       106.67800         82.658000    
                    2           1           3
    Inter-Potential:
        OW~OW: EXP     210710.00         4.0550000        Min:    2.428947    Max:    9.190471
        OW~OW: POW    -610.57800        -6.0000000        Min:    2.428947    Max:    9.190471
        HW~EW: STR     81.489000         4.0000000         2.4830000        Min:    1.586019    Max:    9.995072

    Molecular-Definition:
    H2OQM
        #define    HW_OW    QUA    0.95100000E-01     525171.46        -18842936.        0.29372976E+09
        #define    HW_OW_HW    HAR     106.67800         345.84107    
    H2OMM

    Table-Potential:
        OW~OW: EXP     210710.00         4.0550000        POW    -610.57800        -6.0000000     
        HW~EW: STR     81.489000         4.0000000         2.4830000     
